<mxfile host="app.diagrams.net" modified="2021-08-17T12:42:17.248Z" agent="5.0 (Macintosh; Intel Mac OS X 10_15_7) AppleWebKit/537.36 (KHTML, like Gecko) Chrome/92.0.4515.159 Safari/537.36" etag="hJO4YT_GRIUK9DABSY7c" version="14.9.7" type="github">
  <diagram id="Jgcnfus3rVwaIpYvfsL2" name="Page-1">
    <mxGraphModel dx="396" dy="488" grid="1" gridSize="10" guides="1" tooltips="1" connect="1" arrows="1" fold="1" page="1" pageScale="1" pageWidth="827" pageHeight="1169" math="0" shadow="0">
      <root>
        <mxCell id="0" />
        <mxCell id="1" parent="0" />
        <mxCell id="I12RUrw10fkCgwKOtcLm-1" value="" style="ellipse;whiteSpace=wrap;html=1;rounded=0;sketch=0;strokeColor=#788AA3;fontColor=#46495D;fontSize=21;fillColor=#B9E0A5;" vertex="1" parent="1">
          <mxGeometry x="1550" y="400" width="300" height="460" as="geometry" />
        </mxCell>
        <mxCell id="I12RUrw10fkCgwKOtcLm-2" style="edgeStyle=orthogonalEdgeStyle;sketch=0;orthogonalLoop=1;jettySize=auto;html=1;entryX=0.069;entryY=0.004;entryDx=0;entryDy=0;entryPerimeter=0;strokeColor=#788AA3;fillColor=#B2C9AB;fontColor=#46495D;exitX=0.109;exitY=1.023;exitDx=0;exitDy=0;exitPerimeter=0;strokeWidth=3;curved=1;fontSize=21;" edge="1" parent="1" source="I12RUrw10fkCgwKOtcLm-8" target="I12RUrw10fkCgwKOtcLm-10">
          <mxGeometry relative="1" as="geometry">
            <Array as="points">
              <mxPoint x="350" y="350" />
              <mxPoint x="270" y="350" />
              <mxPoint x="270" y="600" />
              <mxPoint x="231" y="600" />
            </Array>
          </mxGeometry>
        </mxCell>
        <mxCell id="I12RUrw10fkCgwKOtcLm-3" style="edgeStyle=orthogonalEdgeStyle;curved=1;sketch=0;orthogonalLoop=1;jettySize=auto;html=1;strokeColor=#788AA3;strokeWidth=3;fillColor=#B2C9AB;fontColor=#46495D;fontSize=21;" edge="1" parent="1" source="I12RUrw10fkCgwKOtcLm-8" target="I12RUrw10fkCgwKOtcLm-17">
          <mxGeometry relative="1" as="geometry" />
        </mxCell>
        <mxCell id="I12RUrw10fkCgwKOtcLm-4" style="edgeStyle=orthogonalEdgeStyle;curved=1;sketch=0;orthogonalLoop=1;jettySize=auto;html=1;entryX=0.047;entryY=0.053;entryDx=0;entryDy=0;entryPerimeter=0;strokeColor=#788AA3;strokeWidth=3;fillColor=#B2C9AB;fontColor=#46495D;fontSize=21;" edge="1" parent="1" source="I12RUrw10fkCgwKOtcLm-8" target="I12RUrw10fkCgwKOtcLm-39">
          <mxGeometry relative="1" as="geometry">
            <Array as="points">
              <mxPoint x="210" y="275" />
              <mxPoint x="210" y="881" />
            </Array>
          </mxGeometry>
        </mxCell>
        <mxCell id="I12RUrw10fkCgwKOtcLm-5" style="edgeStyle=orthogonalEdgeStyle;curved=1;sketch=0;orthogonalLoop=1;jettySize=auto;html=1;strokeColor=#788AA3;strokeWidth=3;fillColor=#B2C9AB;fontColor=#46495D;fontSize=21;" edge="1" parent="1" source="I12RUrw10fkCgwKOtcLm-8" target="I12RUrw10fkCgwKOtcLm-13">
          <mxGeometry relative="1" as="geometry" />
        </mxCell>
        <mxCell id="I12RUrw10fkCgwKOtcLm-6" style="edgeStyle=orthogonalEdgeStyle;curved=1;sketch=0;orthogonalLoop=1;jettySize=auto;html=1;strokeColor=#788AA3;strokeWidth=3;fillColor=#B2C9AB;fontColor=#46495D;fontSize=21;" edge="1" parent="1" source="I12RUrw10fkCgwKOtcLm-8" target="I12RUrw10fkCgwKOtcLm-49">
          <mxGeometry relative="1" as="geometry" />
        </mxCell>
        <mxCell id="I12RUrw10fkCgwKOtcLm-7" style="edgeStyle=orthogonalEdgeStyle;curved=1;sketch=0;orthogonalLoop=1;jettySize=auto;html=1;strokeColor=#788AA3;strokeWidth=3;fillColor=#B2C9AB;fontSize=21;fontColor=#46495D;" edge="1" parent="1" source="I12RUrw10fkCgwKOtcLm-8" target="I12RUrw10fkCgwKOtcLm-57">
          <mxGeometry relative="1" as="geometry" />
        </mxCell>
        <mxCell id="I12RUrw10fkCgwKOtcLm-8" value="" style="rounded=1;whiteSpace=wrap;html=1;fontSize=21;fillColor=#fff2cc;strokeColor=#d6b656;" vertex="1" parent="1">
          <mxGeometry x="220" y="210" width="1190" height="130" as="geometry" />
        </mxCell>
        <mxCell id="I12RUrw10fkCgwKOtcLm-9" style="edgeStyle=orthogonalEdgeStyle;curved=1;sketch=0;orthogonalLoop=1;jettySize=auto;html=1;entryX=0.273;entryY=-0.02;entryDx=0;entryDy=0;entryPerimeter=0;strokeColor=#788AA3;strokeWidth=3;fillColor=#B2C9AB;fontSize=21;fontColor=#46495D;" edge="1" parent="1" source="I12RUrw10fkCgwKOtcLm-10" target="I12RUrw10fkCgwKOtcLm-39">
          <mxGeometry relative="1" as="geometry" />
        </mxCell>
        <mxCell id="I12RUrw10fkCgwKOtcLm-10" value="" style="rounded=1;whiteSpace=wrap;html=1;fillColor=#B2C9AB;strokeColor=#788AA3;fontColor=#46495D;fontSize=21;" vertex="1" parent="1">
          <mxGeometry x="220" y="660" width="430" height="160" as="geometry" />
        </mxCell>
        <mxCell id="I12RUrw10fkCgwKOtcLm-11" style="edgeStyle=orthogonalEdgeStyle;curved=1;sketch=0;orthogonalLoop=1;jettySize=auto;html=1;strokeColor=#788AA3;strokeWidth=3;fillColor=#B2C9AB;fontColor=#46495D;fontSize=21;" edge="1" parent="1" source="I12RUrw10fkCgwKOtcLm-13" target="I12RUrw10fkCgwKOtcLm-17">
          <mxGeometry relative="1" as="geometry" />
        </mxCell>
        <mxCell id="I12RUrw10fkCgwKOtcLm-12" style="edgeStyle=orthogonalEdgeStyle;curved=1;sketch=0;orthogonalLoop=1;jettySize=auto;html=1;entryX=0.277;entryY=-0.003;entryDx=0;entryDy=0;entryPerimeter=0;strokeColor=#788AA3;strokeWidth=3;fillColor=#B2C9AB;fontColor=#46495D;fontSize=21;" edge="1" parent="1" source="I12RUrw10fkCgwKOtcLm-13" target="I12RUrw10fkCgwKOtcLm-27">
          <mxGeometry relative="1" as="geometry" />
        </mxCell>
        <mxCell id="I12RUrw10fkCgwKOtcLm-13" value="支付服务" style="ellipse;whiteSpace=wrap;html=1;fillColor=#B2C9AB;strokeColor=#788AA3;fontColor=#46495D;fontSize=21;" vertex="1" parent="1">
          <mxGeometry x="720" y="415" width="90" height="330" as="geometry" />
        </mxCell>
        <mxCell id="I12RUrw10fkCgwKOtcLm-14" value="业务服务端" style="ellipse;whiteSpace=wrap;html=1;fontSize=21;fillColor=#fff2cc;strokeColor=#d6b656;" vertex="1" parent="1">
          <mxGeometry x="400" y="250" width="230" height="70" as="geometry" />
        </mxCell>
        <mxCell id="I12RUrw10fkCgwKOtcLm-15" style="edgeStyle=orthogonalEdgeStyle;curved=1;sketch=0;orthogonalLoop=1;jettySize=auto;html=1;strokeColor=#788AA3;strokeWidth=3;fillColor=#B2C9AB;fontColor=#46495D;fontSize=21;" edge="1" parent="1" source="I12RUrw10fkCgwKOtcLm-17" target="I12RUrw10fkCgwKOtcLm-10">
          <mxGeometry relative="1" as="geometry" />
        </mxCell>
        <mxCell id="I12RUrw10fkCgwKOtcLm-16" style="edgeStyle=orthogonalEdgeStyle;curved=1;sketch=0;orthogonalLoop=1;jettySize=auto;html=1;entryX=0.867;entryY=-0.026;entryDx=0;entryDy=0;entryPerimeter=0;strokeColor=#788AA3;strokeWidth=3;fillColor=#B2C9AB;fontColor=#46495D;fontSize=21;" edge="1" parent="1" source="I12RUrw10fkCgwKOtcLm-17" target="I12RUrw10fkCgwKOtcLm-10">
          <mxGeometry relative="1" as="geometry" />
        </mxCell>
        <mxCell id="I12RUrw10fkCgwKOtcLm-17" value="订单售卖系统&lt;br&gt;&lt;br&gt;&lt;br&gt;" style="ellipse;whiteSpace=wrap;html=1;fillColor=#d5e8d4;strokeColor=#82b366;fontSize=21;align=center;" vertex="1" parent="1">
          <mxGeometry x="290" y="425" width="340" height="175" as="geometry" />
        </mxCell>
        <mxCell id="I12RUrw10fkCgwKOtcLm-18" value="精读课业务层&amp;nbsp;" style="ellipse;whiteSpace=wrap;html=1;fillColor=#B2C9AB;strokeColor=#788AA3;fontColor=#46495D;fontSize=21;" vertex="1" parent="1">
          <mxGeometry x="230" y="730" width="110" height="70" as="geometry" />
        </mxCell>
        <mxCell id="I12RUrw10fkCgwKOtcLm-19" value="精品课业务层" style="ellipse;whiteSpace=wrap;html=1;fillColor=#B2C9AB;strokeColor=#788AA3;fontColor=#46495D;fontSize=21;" vertex="1" parent="1">
          <mxGeometry x="350" y="730" width="100" height="70" as="geometry" />
        </mxCell>
        <mxCell id="I12RUrw10fkCgwKOtcLm-20" value="系统业务层" style="ellipse;whiteSpace=wrap;html=1;fillColor=#B2C9AB;strokeColor=#788AA3;fontColor=#46495D;fontSize=21;" vertex="1" parent="1">
          <mxGeometry x="275" y="670" width="315" height="40" as="geometry" />
        </mxCell>
        <mxCell id="I12RUrw10fkCgwKOtcLm-21" value="少儿课业务层" style="ellipse;whiteSpace=wrap;html=1;fillColor=#B2C9AB;strokeColor=#788AA3;fontColor=#46495D;fontSize=21;" vertex="1" parent="1">
          <mxGeometry x="460" y="730" width="80" height="70" as="geometry" />
        </mxCell>
        <mxCell id="I12RUrw10fkCgwKOtcLm-22" value="VIP业务层&amp;nbsp;" style="ellipse;whiteSpace=wrap;html=1;fillColor=#B2C9AB;strokeColor=#788AA3;fontColor=#46495D;fontSize=21;" vertex="1" parent="1">
          <mxGeometry x="550" y="730" width="80" height="70" as="geometry" />
        </mxCell>
        <mxCell id="I12RUrw10fkCgwKOtcLm-23" value="业务前端" style="ellipse;whiteSpace=wrap;html=1;fontSize=21;fillColor=#fff2cc;strokeColor=#d6b656;" vertex="1" parent="1">
          <mxGeometry x="720" y="260" width="220" height="60" as="geometry" />
        </mxCell>
        <mxCell id="I12RUrw10fkCgwKOtcLm-24" value="业务请求端" style="ellipse;whiteSpace=wrap;html=1;fontSize=21;fillColor=#fff2cc;strokeColor=#d6b656;" vertex="1" parent="1">
          <mxGeometry x="420" y="220" width="800" height="30" as="geometry" />
        </mxCell>
        <mxCell id="I12RUrw10fkCgwKOtcLm-25" style="edgeStyle=orthogonalEdgeStyle;curved=1;sketch=0;orthogonalLoop=1;jettySize=auto;html=1;entryX=0.5;entryY=0;entryDx=0;entryDy=0;strokeColor=#788AA3;strokeWidth=3;fillColor=#B2C9AB;fontSize=21;fontColor=#46495D;" edge="1" parent="1" source="I12RUrw10fkCgwKOtcLm-26" target="I12RUrw10fkCgwKOtcLm-41">
          <mxGeometry relative="1" as="geometry">
            <Array as="points">
              <mxPoint x="1035" y="840" />
              <mxPoint x="460" y="840" />
            </Array>
          </mxGeometry>
        </mxCell>
        <mxCell id="I12RUrw10fkCgwKOtcLm-26" value="统一出款服务" style="ellipse;whiteSpace=wrap;html=1;fillColor=#B2C9AB;strokeColor=#788AA3;fontColor=#46495D;fontSize=21;" vertex="1" parent="1">
          <mxGeometry x="860" y="700" width="350" height="120" as="geometry" />
        </mxCell>
        <mxCell id="I12RUrw10fkCgwKOtcLm-27" value="" style="rounded=1;whiteSpace=wrap;html=1;fillColor=#1ba1e2;strokeColor=#006EAF;fontColor=#ffffff;fontSize=21;" vertex="1" parent="1">
          <mxGeometry x="740" y="927.5" width="420" height="190" as="geometry" />
        </mxCell>
        <mxCell id="I12RUrw10fkCgwKOtcLm-28" value="收/出款服务" style="ellipse;whiteSpace=wrap;html=1;fillColor=#1ba1e2;strokeColor=#006EAF;fontColor=#ffffff;fontSize=21;" vertex="1" parent="1">
          <mxGeometry x="790" y="947.5" width="260" height="30" as="geometry" />
        </mxCell>
        <mxCell id="I12RUrw10fkCgwKOtcLm-29" value="原路退款" style="ellipse;whiteSpace=wrap;html=1;fillColor=#1ba1e2;strokeColor=#006EAF;fontColor=#ffffff;fontSize=21;" vertex="1" parent="1">
          <mxGeometry x="825" y="997.5" width="50" height="110" as="geometry" />
        </mxCell>
        <mxCell id="I12RUrw10fkCgwKOtcLm-30" value="线上出款渠道" style="ellipse;whiteSpace=wrap;html=1;fillColor=#1ba1e2;strokeColor=#006EAF;fontColor=#ffffff;fontSize=21;" vertex="1" parent="1">
          <mxGeometry x="890" y="997.5" width="50" height="110" as="geometry" />
        </mxCell>
        <mxCell id="I12RUrw10fkCgwKOtcLm-31" value="云账户出款渠道" style="ellipse;whiteSpace=wrap;html=1;fillColor=#1ba1e2;strokeColor=#006EAF;fontColor=#ffffff;fontSize=21;" vertex="1" parent="1">
          <mxGeometry x="960" y="997.5" width="50" height="110" as="geometry" />
        </mxCell>
        <mxCell id="I12RUrw10fkCgwKOtcLm-32" value="线下打款渠道" style="ellipse;whiteSpace=wrap;html=1;fillColor=#1ba1e2;strokeColor=#006EAF;fontColor=#ffffff;fontSize=21;" vertex="1" parent="1">
          <mxGeometry x="1025" y="997.5" width="50" height="110" as="geometry" />
        </mxCell>
        <mxCell id="I12RUrw10fkCgwKOtcLm-33" value="三方充值渠道" style="ellipse;whiteSpace=wrap;html=1;fillColor=#1ba1e2;strokeColor=#006EAF;fontColor=#ffffff;fontSize=21;" vertex="1" parent="1">
          <mxGeometry x="760" y="997.5" width="50" height="110" as="geometry" />
        </mxCell>
        <mxCell id="I12RUrw10fkCgwKOtcLm-34" style="edgeStyle=orthogonalEdgeStyle;curved=1;sketch=0;orthogonalLoop=1;jettySize=auto;html=1;strokeColor=#788AA3;strokeWidth=3;fillColor=#B2C9AB;fontColor=#46495D;fontSize=21;" edge="1" parent="1" source="I12RUrw10fkCgwKOtcLm-35">
          <mxGeometry relative="1" as="geometry">
            <mxPoint x="1040" y="710" as="targetPoint" />
          </mxGeometry>
        </mxCell>
        <mxCell id="I12RUrw10fkCgwKOtcLm-35" value="钱包提现" style="ellipse;whiteSpace=wrap;html=1;fillColor=#B2C9AB;strokeColor=#788AA3;fontColor=#46495D;fontSize=21;" vertex="1" parent="1">
          <mxGeometry x="1010" y="410" width="100" height="240" as="geometry" />
        </mxCell>
        <mxCell id="I12RUrw10fkCgwKOtcLm-36" value="收款账单管理" style="ellipse;whiteSpace=wrap;html=1;fillColor=#1ba1e2;strokeColor=#006EAF;fontColor=#ffffff;fontSize=21;" vertex="1" parent="1">
          <mxGeometry x="1090" y="997.5" width="50" height="110" as="geometry" />
        </mxCell>
        <mxCell id="I12RUrw10fkCgwKOtcLm-37" value="合同" style="ellipse;whiteSpace=wrap;html=1;fillColor=#1ba1e2;strokeColor=#006EAF;fontColor=#ffffff;fontSize=21;" vertex="1" parent="1">
          <mxGeometry x="1230" y="900" width="260" height="60" as="geometry" />
        </mxCell>
        <mxCell id="I12RUrw10fkCgwKOtcLm-38" value="发票" style="ellipse;whiteSpace=wrap;html=1;fillColor=#1ba1e2;strokeColor=#006EAF;fontColor=#ffffff;fontSize=21;" vertex="1" parent="1">
          <mxGeometry x="1220" y="986.5" width="260" height="65" as="geometry" />
        </mxCell>
        <mxCell id="I12RUrw10fkCgwKOtcLm-39" value="" style="rounded=1;whiteSpace=wrap;html=1;fillColor=#1ba1e2;strokeColor=#006EAF;fontSize=21;fontColor=#ffffff;" vertex="1" parent="1">
          <mxGeometry x="220" y="940" width="430" height="190" as="geometry" />
        </mxCell>
        <mxCell id="I12RUrw10fkCgwKOtcLm-40" value="钱包" style="ellipse;whiteSpace=wrap;html=1;fillColor=#1ba1e2;strokeColor=#006EAF;fontSize=21;fontColor=#ffffff;" vertex="1" parent="1">
          <mxGeometry x="260" y="1002.5" width="60" height="115" as="geometry" />
        </mxCell>
        <mxCell id="I12RUrw10fkCgwKOtcLm-41" value="权益系统" style="ellipse;whiteSpace=wrap;html=1;fillColor=#1ba1e2;strokeColor=#006EAF;fontSize=21;fontColor=#ffffff;" vertex="1" parent="1">
          <mxGeometry x="290" y="950" width="340" height="30" as="geometry" />
        </mxCell>
        <mxCell id="I12RUrw10fkCgwKOtcLm-42" value="课时" style="ellipse;whiteSpace=wrap;html=1;fillColor=#1ba1e2;strokeColor=#006EAF;fontSize=21;fontColor=#ffffff;" vertex="1" parent="1">
          <mxGeometry x="450" y="1002.5" width="70" height="120" as="geometry" />
        </mxCell>
        <mxCell id="I12RUrw10fkCgwKOtcLm-43" value="属性" style="ellipse;whiteSpace=wrap;html=1;fillColor=#1ba1e2;strokeColor=#006EAF;fontSize=21;fontColor=#ffffff;" vertex="1" parent="1">
          <mxGeometry x="550" y="1002.5" width="70" height="120" as="geometry" />
        </mxCell>
        <mxCell id="I12RUrw10fkCgwKOtcLm-44" value="优惠券" style="ellipse;whiteSpace=wrap;html=1;fillColor=#1ba1e2;strokeColor=#006EAF;fontSize=21;fontColor=#ffffff;" vertex="1" parent="1">
          <mxGeometry x="350" y="1000" width="70" height="120" as="geometry" />
        </mxCell>
        <mxCell id="I12RUrw10fkCgwKOtcLm-45" style="edgeStyle=orthogonalEdgeStyle;curved=1;sketch=0;orthogonalLoop=1;jettySize=auto;html=1;strokeColor=#788AA3;strokeWidth=3;fillColor=#B2C9AB;fontColor=#46495D;fontSize=21;" edge="1" parent="1" source="I12RUrw10fkCgwKOtcLm-46" target="I12RUrw10fkCgwKOtcLm-35">
          <mxGeometry relative="1" as="geometry" />
        </mxCell>
        <mxCell id="I12RUrw10fkCgwKOtcLm-46" value="APP" style="ellipse;whiteSpace=wrap;html=1;fontSize=21;fillColor=#fff2cc;strokeColor=#d6b656;" vertex="1" parent="1">
          <mxGeometry x="1000" y="257.5" width="290" height="55" as="geometry" />
        </mxCell>
        <mxCell id="I12RUrw10fkCgwKOtcLm-47" style="edgeStyle=orthogonalEdgeStyle;curved=1;sketch=0;orthogonalLoop=1;jettySize=auto;html=1;strokeColor=#788AA3;strokeWidth=3;fillColor=#B2C9AB;fontColor=#46495D;fontSize=21;" edge="1" parent="1" source="I12RUrw10fkCgwKOtcLm-49" target="I12RUrw10fkCgwKOtcLm-39">
          <mxGeometry relative="1" as="geometry">
            <Array as="points">
              <mxPoint x="915" y="820" />
              <mxPoint x="435" y="820" />
            </Array>
          </mxGeometry>
        </mxCell>
        <mxCell id="I12RUrw10fkCgwKOtcLm-48" style="edgeStyle=orthogonalEdgeStyle;curved=1;sketch=0;orthogonalLoop=1;jettySize=auto;html=1;strokeColor=#788AA3;strokeWidth=3;fillColor=#B2C9AB;fontColor=#46495D;fontSize=21;" edge="1" parent="1" source="I12RUrw10fkCgwKOtcLm-49" target="I12RUrw10fkCgwKOtcLm-26">
          <mxGeometry relative="1" as="geometry" />
        </mxCell>
        <mxCell id="I12RUrw10fkCgwKOtcLm-49" value="退款/返学费" style="ellipse;whiteSpace=wrap;html=1;fillColor=#B2C9AB;strokeColor=#788AA3;fontColor=#46495D;fontSize=21;" vertex="1" parent="1">
          <mxGeometry x="860" y="412" width="110" height="250" as="geometry" />
        </mxCell>
        <mxCell id="I12RUrw10fkCgwKOtcLm-50" value="" style="endArrow=none;html=1;strokeColor=#788AA3;fontColor=#46495D;curved=1;fontSize=21;" edge="1" parent="1">
          <mxGeometry width="50" height="50" relative="1" as="geometry">
            <mxPoint x="130" y="390" as="sourcePoint" />
            <mxPoint x="1710" y="390" as="targetPoint" />
          </mxGeometry>
        </mxCell>
        <mxCell id="I12RUrw10fkCgwKOtcLm-51" value="" style="endArrow=none;html=1;strokeColor=#788AA3;fontColor=#46495D;curved=1;fontSize=21;" edge="1" parent="1">
          <mxGeometry width="50" height="50" relative="1" as="geometry">
            <mxPoint x="120" y="860" as="sourcePoint" />
            <mxPoint x="1700" y="860" as="targetPoint" />
          </mxGeometry>
        </mxCell>
        <mxCell id="I12RUrw10fkCgwKOtcLm-52" value="" style="endArrow=none;html=1;strokeColor=#006EAF;fontColor=#46495D;curved=1;fontSize=21;fillColor=#1ba1e2;" edge="1" parent="1">
          <mxGeometry width="50" height="50" relative="1" as="geometry">
            <mxPoint x="120" y="1160" as="sourcePoint" />
            <mxPoint x="1700" y="1160" as="targetPoint" />
          </mxGeometry>
        </mxCell>
        <mxCell id="I12RUrw10fkCgwKOtcLm-53" value="业&lt;br style=&quot;font-size: 21px;&quot;&gt;务&lt;br style=&quot;font-size: 21px;&quot;&gt;层&lt;br style=&quot;font-size: 21px;&quot;&gt;逻&lt;br style=&quot;font-size: 21px;&quot;&gt;辑&lt;br style=&quot;font-size: 21px;&quot;&gt;层&lt;br style=&quot;font-size: 21px;&quot;&gt;" style="rounded=1;whiteSpace=wrap;html=1;fillColor=#B2C9AB;strokeColor=#788AA3;fontColor=#46495D;fontSize=21;" vertex="1" parent="1">
          <mxGeometry x="150" y="440" width="30" height="240" as="geometry" />
        </mxCell>
        <mxCell id="I12RUrw10fkCgwKOtcLm-54" value="底&lt;br style=&quot;font-size: 21px;&quot;&gt;层&lt;br style=&quot;font-size: 21px;&quot;&gt;权&lt;br style=&quot;font-size: 21px;&quot;&gt;益&lt;br style=&quot;font-size: 21px;&quot;&gt;层" style="rounded=1;whiteSpace=wrap;html=1;fillColor=#1ba1e2;strokeColor=#006EAF;fontColor=#ffffff;fontSize=21;" vertex="1" parent="1">
          <mxGeometry x="150" y="935" width="30" height="175" as="geometry" />
        </mxCell>
        <mxCell id="I12RUrw10fkCgwKOtcLm-55" value="请&lt;br style=&quot;font-size: 21px;&quot;&gt;求&lt;br style=&quot;font-size: 21px;&quot;&gt;来&lt;br style=&quot;font-size: 21px;&quot;&gt;源&lt;br style=&quot;font-size: 21px;&quot;&gt;层" style="rounded=1;whiteSpace=wrap;html=1;arcSize=40;fontSize=21;fillColor=#fff2cc;strokeColor=#d6b656;" vertex="1" parent="1">
          <mxGeometry x="150" y="215" width="30" height="140" as="geometry" />
        </mxCell>
        <mxCell id="I12RUrw10fkCgwKOtcLm-56" style="edgeStyle=orthogonalEdgeStyle;curved=1;sketch=0;orthogonalLoop=1;jettySize=auto;html=1;entryX=0.835;entryY=0.01;entryDx=0;entryDy=0;entryPerimeter=0;strokeColor=#788AA3;strokeWidth=3;fillColor=#B2C9AB;fontSize=21;fontColor=#46495D;" edge="1" parent="1" source="I12RUrw10fkCgwKOtcLm-57" target="I12RUrw10fkCgwKOtcLm-39">
          <mxGeometry relative="1" as="geometry">
            <Array as="points">
              <mxPoint x="1450" y="850" />
              <mxPoint x="579" y="850" />
            </Array>
          </mxGeometry>
        </mxCell>
        <mxCell id="I12RUrw10fkCgwKOtcLm-57" value="" style="ellipse;whiteSpace=wrap;html=1;rounded=0;sketch=0;strokeColor=#82b366;fillColor=#d5e8d4;fontSize=21;" vertex="1" parent="1">
          <mxGeometry x="1360" y="410" width="180" height="370" as="geometry" />
        </mxCell>
        <mxCell id="I12RUrw10fkCgwKOtcLm-58" style="edgeStyle=orthogonalEdgeStyle;curved=1;sketch=0;orthogonalLoop=1;jettySize=auto;html=1;strokeColor=#788AA3;strokeWidth=3;fillColor=#B2C9AB;fontSize=21;fontColor=#46495D;" edge="1" parent="1" source="I12RUrw10fkCgwKOtcLm-59" target="I12RUrw10fkCgwKOtcLm-27">
          <mxGeometry relative="1" as="geometry">
            <Array as="points">
              <mxPoint x="1625" y="850" />
              <mxPoint x="900" y="850" />
            </Array>
          </mxGeometry>
        </mxCell>
        <mxCell id="I12RUrw10fkCgwKOtcLm-59" value="奖励金账户" style="ellipse;whiteSpace=wrap;html=1;rounded=0;sketch=0;strokeColor=#788AA3;fillColor=#B2C9AB;fontColor=#46495D;fontSize=21;" vertex="1" parent="1">
          <mxGeometry x="1580" y="530" width="110" height="290" as="geometry" />
        </mxCell>
        <mxCell id="I12RUrw10fkCgwKOtcLm-60" value="虚拟币账户&lt;br&gt;&lt;br&gt;&lt;br&gt;&lt;br&gt;&lt;br&gt;&lt;br&gt;" style="ellipse;whiteSpace=wrap;html=1;rounded=0;sketch=0;strokeColor=#788AA3;fillColor=#B2C9AB;fontColor=#46495D;fontSize=21;" vertex="1" parent="1">
          <mxGeometry x="1720" y="520" width="100" height="300" as="geometry" />
        </mxCell>
        <mxCell id="I12RUrw10fkCgwKOtcLm-61" value="" style="rounded=0;whiteSpace=wrap;html=1;sketch=0;strokeColor=#BD7000;fillColor=#f0a30a;fontSize=21;fontColor=#ffffff;" vertex="1" parent="1">
          <mxGeometry x="1331" y="1250" width="120" height="60" as="geometry" />
        </mxCell>
        <mxCell id="I12RUrw10fkCgwKOtcLm-62" value="" style="rounded=1;whiteSpace=wrap;html=1;sketch=0;strokeColor=#BD7000;fillColor=#f0a30a;fontSize=51;fontColor=#ffffff;" vertex="1" parent="1">
          <mxGeometry x="140" y="1200" width="1740" height="140" as="geometry" />
        </mxCell>
        <mxCell id="I12RUrw10fkCgwKOtcLm-63" value="&lt;span&gt;统一风控平台&lt;/span&gt;" style="ellipse;whiteSpace=wrap;html=1;rounded=1;sketch=0;strokeColor=#BD7000;fillColor=#f0a30a;fontSize=51;fontColor=#ffffff;" vertex="1" parent="1">
          <mxGeometry x="550" y="1215" width="990" height="55" as="geometry" />
        </mxCell>
        <mxCell id="I12RUrw10fkCgwKOtcLm-64" value="......." style="ellipse;whiteSpace=wrap;html=1;rounded=1;sketch=0;strokeColor=#788AA3;fontSize=51;fontColor=#46495D;fillColor=#66B2FF;" vertex="1" parent="1">
          <mxGeometry x="1230" y="1070" width="260" height="70" as="geometry" />
        </mxCell>
        <mxCell id="I12RUrw10fkCgwKOtcLm-65" value="&lt;font style=&quot;font-size: 24px&quot;&gt;商城&amp;amp;订单&lt;/font&gt;" style="ellipse;whiteSpace=wrap;html=1;rounded=1;sketch=0;strokeColor=#82b366;fillColor=#d5e8d4;fontSize=21;" vertex="1" parent="1">
          <mxGeometry x="1375" y="452" width="150" height="88" as="geometry" />
        </mxCell>
        <mxCell id="I12RUrw10fkCgwKOtcLm-66" value="&lt;span style=&quot;font-size: 24px&quot;&gt;仓储物流&lt;/span&gt;" style="ellipse;whiteSpace=wrap;html=1;rounded=1;sketch=0;strokeColor=#82b366;fillColor=#d5e8d4;fontSize=21;" vertex="1" parent="1">
          <mxGeometry x="1370" y="609" width="160" height="91" as="geometry" />
        </mxCell>
        <mxCell id="I12RUrw10fkCgwKOtcLm-67" value="套餐" style="ellipse;whiteSpace=wrap;html=1;fillColor=#d5e8d4;strokeColor=#82b366;fontSize=21;align=center;" vertex="1" parent="1">
          <mxGeometry x="320" y="520" width="85" height="60" as="geometry" />
        </mxCell>
        <mxCell id="I12RUrw10fkCgwKOtcLm-68" value="订单" style="ellipse;whiteSpace=wrap;html=1;fillColor=#d5e8d4;strokeColor=#82b366;fontSize=21;align=center;" vertex="1" parent="1">
          <mxGeometry x="417.5" y="520" width="85" height="60" as="geometry" />
        </mxCell>
        <mxCell id="I12RUrw10fkCgwKOtcLm-69" value="规则" style="ellipse;whiteSpace=wrap;html=1;fillColor=#d5e8d4;strokeColor=#82b366;fontSize=21;align=center;" vertex="1" parent="1">
          <mxGeometry x="510" y="520" width="85" height="60" as="geometry" />
        </mxCell>
        <mxCell id="I12RUrw10fkCgwKOtcLm-70" value="星币" style="ellipse;whiteSpace=wrap;html=1;rounded=0;sketch=0;strokeColor=#788AA3;fillColor=#B2C9AB;fontColor=#46495D;fontSize=21;" vertex="1" parent="1">
          <mxGeometry x="1725" y="635" width="90" height="60" as="geometry" />
        </mxCell>
        <mxCell id="I12RUrw10fkCgwKOtcLm-71" value="星币" style="ellipse;whiteSpace=wrap;html=1;rounded=0;sketch=0;strokeColor=#788AA3;fillColor=#B2C9AB;fontColor=#46495D;fontSize=21;" vertex="1" parent="1">
          <mxGeometry x="1725" y="705" width="90" height="60" as="geometry" />
        </mxCell>
        <mxCell id="I12RUrw10fkCgwKOtcLm-72" value="&lt;font style=&quot;font-size: 24px&quot;&gt;虚拟币&lt;/font&gt;" style="ellipse;whiteSpace=wrap;html=1;fillColor=#B9E0A5;" vertex="1" parent="1">
          <mxGeometry x="1600" y="430" width="200" height="70" as="geometry" />
        </mxCell>
        <mxCell id="I12RUrw10fkCgwKOtcLm-73" style="edgeStyle=orthogonalEdgeStyle;curved=1;sketch=0;orthogonalLoop=1;jettySize=auto;html=1;strokeColor=#788AA3;strokeWidth=3;fillColor=#B2C9AB;fontSize=21;fontColor=#46495D;" edge="1" parent="1" source="I12RUrw10fkCgwKOtcLm-8" target="I12RUrw10fkCgwKOtcLm-60">
          <mxGeometry relative="1" as="geometry" />
        </mxCell>
        <mxCell id="I12RUrw10fkCgwKOtcLm-74" style="edgeStyle=orthogonalEdgeStyle;curved=1;sketch=0;orthogonalLoop=1;jettySize=auto;html=1;strokeColor=#788AA3;strokeWidth=3;fillColor=#B2C9AB;fontSize=21;fontColor=#46495D;" edge="1" parent="1" source="I12RUrw10fkCgwKOtcLm-8" target="I12RUrw10fkCgwKOtcLm-59">
          <mxGeometry relative="1" as="geometry" />
        </mxCell>
        <mxCell id="I12RUrw10fkCgwKOtcLm-75" value="&lt;span style=&quot;font-size: 20px&quot;&gt;预算管控&lt;br&gt;&lt;/span&gt;" style="ellipse;whiteSpace=wrap;html=1;rounded=1;sketch=0;strokeColor=#b85450;fillColor=#f8cecc;fontSize=51;" vertex="1" parent="1">
          <mxGeometry x="639" y="1280" width="222" height="60" as="geometry" />
        </mxCell>
        <mxCell id="I12RUrw10fkCgwKOtcLm-76" value="&lt;span style=&quot;font-size: 20px&quot;&gt;数据对账&lt;br&gt;&lt;/span&gt;" style="ellipse;whiteSpace=wrap;html=1;rounded=1;sketch=0;strokeColor=#b85450;fillColor=#f8cecc;fontSize=51;" vertex="1" parent="1">
          <mxGeometry x="921" y="1280" width="222" height="60" as="geometry" />
        </mxCell>
        <mxCell id="I12RUrw10fkCgwKOtcLm-77" value="&lt;span style=&quot;font-size: 20px&quot;&gt;重要数据监控&lt;br&gt;&lt;/span&gt;" style="ellipse;whiteSpace=wrap;html=1;rounded=1;sketch=0;strokeColor=#b85450;fillColor=#f8cecc;fontSize=51;" vertex="1" parent="1">
          <mxGeometry x="1211" y="1280" width="222" height="60" as="geometry" />
        </mxCell>
      </root>
    </mxGraphModel>
  </diagram>
</mxfile>
